<?xml version="1.0" standalone="no"?>
<!DOCTYPE svg PUBLIC "-//W3C//DTD SVG 20010904//EN"
 "http://www.w3.org/TR/2001/REC-SVG-20010904/DTD/svg10.dtd">
<svg version="1.0" xmlns="http://www.w3.org/2000/svg"
 width="315.000000pt" height="315.000000pt" viewBox="0 0 315.000000 315.000000"
 preserveAspectRatio="xMidYMid meet">
<metadata>
Created by potrace 1.11, written by Peter Selinger 2001-2013
</metadata>
<g transform="translate(0.000000,315.000000) scale(0.100000,-0.100000)"
fill="#000000" stroke="none">
<path d="M0 1575 l0 -1575 1575 0 1575 0 0 1575 0 1575 -1575 0 -1575 0 0
-1575z m1973 1377 c124 -58 163 -123 177 -294 5 -61 7 -115 4 -120 -3 -4 -72
-8 -154 -8 l-148 0 -3 113 c-4 123 -13 147 -55 147 -17 0 -28 -8 -34 -26 -6
-15 -10 -178 -10 -392 0 -317 2 -371 16 -390 19 -27 45 -28 69 -2 14 16 19 43
23 139 l5 120 -34 3 -34 3 0 85 0 85 180 0 180 0 0 -310 0 -310 -97 -3 -96 -3
-12 36 c-6 19 -14 35 -17 35 -3 0 -14 -11 -25 -25 -56 -71 -186 -91 -288 -44
-70 32 -116 79 -149 149 l-26 55 0 375 c0 422 2 435 67 506 82 88 158 116 306
110 76 -4 104 -10 155 -34z m-1475 -200 l2 -213 43 3 42 3 3 213 2 213 153 -3
152 -3 3 -587 2 -588 -155 0 -155 0 0 245 0 245 -45 0 -45 0 0 -245 0 -245
-155 0 -155 0 0 590 0 591 153 -3 152 -3 3 -213z m830 -334 l2 -548 -155 0
-155 0 0 550 0 551 153 -3 152 -3 3 -547z m1254 340 l3 -213 42 -3 43 -3 2
213 3 213 153 3 152 3 0 -591 0 -590 -155 0 -155 0 0 245 0 245 -45 0 -45 0 0
-245 0 -245 -155 0 -155 0 0 583 c0 321 3 587 7 590 3 4 73 7 154 7 l149 0 2
-212z m-1264 -1003 c82 -20 134 -47 193 -102 72 -67 103 -138 103 -238 0 -122
-40 -197 -146 -278 -78 -58 -166 -81 -296 -75 -162 8 -279 61 -342 155 -40 61
-53 112 -54 203 0 91 30 166 93 229 101 101 285 145 449 106z m-838 -285 l0
-220 90 0 90 0 0 -55 0 -55 -235 0 -235 0 0 275 0 275 145 0 145 0 0 -220z
m1585 53 c29 -173 44 -227 45 -163 0 19 17 100 38 180 l37 145 168 3 c92 1
167 0 167 -4 0 -11 62 -359 64 -361 1 -2 12 45 24 105 12 59 31 142 43 185
l21 77 155 0 c142 0 154 -1 149 -17 -3 -10 -32 -126 -66 -258 -33 -132 -63
-248 -66 -257 -5 -16 -24 -18 -204 -18 l-198 0 -30 83 c-16 45 -35 106 -43
135 -7 28 -15 52 -18 52 -3 0 -24 -60 -46 -133 l-40 -132 -197 -3 c-181 -2
-197 -1 -202 15 -3 10 -33 126 -66 258 -34 132 -63 248 -66 258 -5 16 7 17
149 17 l154 0 28 -167z m-1545 -660 c22 -157 37 -236 39 -204 2 28 42 327 46
349 5 22 8 22 155 22 l150 0 0 -435 0 -435 -100 0 -100 0 0 272 c0 149 -2 269
-4 267 -3 -3 -22 -125 -42 -272 l-37 -267 -72 0 c-71 0 -73 1 -78 28 -3 15
-20 131 -39 257 l-33 230 -5 -255 -5 -255 -102 -3 -103 -3 0 436 0 435 153 0
153 0 24 -167z m1360 156 c28 -6 65 -23 82 -37 56 -47 58 -62 58 -399 0 -435
14 -416 -322 -421 l-218 -4 0 436 0 436 175 0 c95 0 197 -5 225 -11z m470
-424 l0 -435 -120 0 -120 0 0 435 0 435 120 0 120 0 0 -435z m500 423 c0 -11
111 -740 125 -826 l6 -32 -120 0 -119 0 -7 67 c-9 94 -9 95 -52 91 -29 -2 -38
-8 -40 -23 -1 -11 -5 -46 -8 -78 l-6 -57 -120 0 c-87 0 -119 3 -119 12 0 19
111 831 115 846 6 17 345 18 345 0z m-1460 -128 l0 -79 -77 -3 -78 -3 0 -75 0
-75 73 -3 72 -3 0 -74 0 -74 -72 -3 -73 -3 0 -85 0 -85 88 -3 87 -3 0 -79 0
-80 -205 0 -205 0 0 405 0 405 195 0 195 0 0 -80z"/>
<path d="M1136 1566 c-22 -8 -53 -29 -70 -45 -27 -27 -31 -39 -34 -98 -4 -84
18 -125 81 -153 83 -38 186 -14 227 53 27 44 27 138 1 181 -38 61 -131 89
-205 62z"/>
<path d="M1720 595 c0 -276 1 -285 19 -285 11 0 27 10 35 22 13 19 16 62 16
266 0 149 -4 251 -10 263 -6 11 -21 19 -35 19 l-25 0 0 -285z"/>
<path d="M2680 804 c0 -9 -22 -192 -36 -291 l-5 -43 42 0 42 0 -6 48 c-4 26
-12 101 -18 167 -6 66 -13 122 -15 124 -2 2 -4 0 -4 -5z"/>
</g>
</svg>
